<mxfile host="app.diagrams.net" modified="2022-10-06T14:02:53.084Z" agent="5.0 (Windows NT 10.0; Win64; x64) AppleWebKit/537.36 (KHTML, like Gecko) Chrome/105.0.0.0 Safari/537.36" etag="KGIMBBNj0DcfHAnW07z1" version="20.4.0" type="github" pages="2">
  <diagram id="iSL3dtTWZE_-GyEQVPxn" name="第 1 页">
    <mxGraphModel dx="865" dy="476" grid="0" gridSize="10" guides="1" tooltips="1" connect="1" arrows="1" fold="1" page="1" pageScale="1" pageWidth="827" pageHeight="1169" math="0" shadow="0">
      <root>
        <mxCell id="0" />
        <mxCell id="1" parent="0" />
        <mxCell id="cATCjlfiW_CkpRkmnPD8-5" value="n" style="text;html=1;strokeColor=none;fillColor=none;align=center;verticalAlign=middle;whiteSpace=wrap;rounded=0;" vertex="1" parent="1">
          <mxGeometry x="340" y="70" width="60" height="30" as="geometry" />
        </mxCell>
        <mxCell id="cATCjlfiW_CkpRkmnPD8-6" value="n/3" style="text;html=1;strokeColor=none;fillColor=none;align=center;verticalAlign=middle;whiteSpace=wrap;rounded=0;" vertex="1" parent="1">
          <mxGeometry x="250" y="130" width="60" height="30" as="geometry" />
        </mxCell>
        <mxCell id="cATCjlfiW_CkpRkmnPD8-7" value="2n/3" style="text;html=1;strokeColor=none;fillColor=none;align=center;verticalAlign=middle;whiteSpace=wrap;rounded=0;" vertex="1" parent="1">
          <mxGeometry x="430" y="120" width="60" height="30" as="geometry" />
        </mxCell>
        <mxCell id="cATCjlfiW_CkpRkmnPD8-8" value="n/9" style="text;html=1;strokeColor=none;fillColor=none;align=center;verticalAlign=middle;whiteSpace=wrap;rounded=0;" vertex="1" parent="1">
          <mxGeometry x="180" y="180" width="60" height="30" as="geometry" />
        </mxCell>
        <mxCell id="cATCjlfiW_CkpRkmnPD8-9" value="2n/9" style="text;html=1;strokeColor=none;fillColor=none;align=center;verticalAlign=middle;whiteSpace=wrap;rounded=0;" vertex="1" parent="1">
          <mxGeometry x="270" y="180" width="60" height="30" as="geometry" />
        </mxCell>
        <mxCell id="cATCjlfiW_CkpRkmnPD8-10" value="2n/9" style="text;html=1;strokeColor=none;fillColor=none;align=center;verticalAlign=middle;whiteSpace=wrap;rounded=0;" vertex="1" parent="1">
          <mxGeometry x="370" y="180" width="60" height="30" as="geometry" />
        </mxCell>
        <mxCell id="cATCjlfiW_CkpRkmnPD8-11" value="4n/9" style="text;html=1;strokeColor=none;fillColor=none;align=center;verticalAlign=middle;whiteSpace=wrap;rounded=0;" vertex="1" parent="1">
          <mxGeometry x="480" y="180" width="60" height="30" as="geometry" />
        </mxCell>
        <mxCell id="cATCjlfiW_CkpRkmnPD8-12" value="n/27" style="text;html=1;strokeColor=none;fillColor=none;align=center;verticalAlign=middle;whiteSpace=wrap;rounded=0;" vertex="1" parent="1">
          <mxGeometry x="130" y="230" width="60" height="30" as="geometry" />
        </mxCell>
        <mxCell id="cATCjlfiW_CkpRkmnPD8-13" value="2n/27" style="text;html=1;strokeColor=none;fillColor=none;align=center;verticalAlign=middle;whiteSpace=wrap;rounded=0;" vertex="1" parent="1">
          <mxGeometry x="200" y="230" width="60" height="30" as="geometry" />
        </mxCell>
        <mxCell id="cATCjlfiW_CkpRkmnPD8-14" value="8n/27" style="text;html=1;strokeColor=none;fillColor=none;align=center;verticalAlign=middle;whiteSpace=wrap;rounded=0;" vertex="1" parent="1">
          <mxGeometry x="510" y="230" width="60" height="30" as="geometry" />
        </mxCell>
        <mxCell id="cATCjlfiW_CkpRkmnPD8-15" value="" style="endArrow=none;dashed=1;html=1;rounded=0;entryX=0.5;entryY=1;entryDx=0;entryDy=0;exitX=0.5;exitY=0;exitDx=0;exitDy=0;" edge="1" parent="1" source="cATCjlfiW_CkpRkmnPD8-6" target="cATCjlfiW_CkpRkmnPD8-5">
          <mxGeometry width="50" height="50" relative="1" as="geometry">
            <mxPoint x="260" y="300" as="sourcePoint" />
            <mxPoint x="310" y="250" as="targetPoint" />
          </mxGeometry>
        </mxCell>
        <mxCell id="cATCjlfiW_CkpRkmnPD8-16" value="" style="endArrow=none;dashed=1;html=1;rounded=0;exitX=0.5;exitY=1;exitDx=0;exitDy=0;entryX=0.5;entryY=0;entryDx=0;entryDy=0;" edge="1" parent="1" source="cATCjlfiW_CkpRkmnPD8-5" target="cATCjlfiW_CkpRkmnPD8-7">
          <mxGeometry width="50" height="50" relative="1" as="geometry">
            <mxPoint x="290" y="140" as="sourcePoint" />
            <mxPoint x="380" y="110" as="targetPoint" />
          </mxGeometry>
        </mxCell>
        <mxCell id="cATCjlfiW_CkpRkmnPD8-17" value="" style="endArrow=none;dashed=1;html=1;rounded=0;exitX=0.5;exitY=0;exitDx=0;exitDy=0;" edge="1" parent="1" source="cATCjlfiW_CkpRkmnPD8-8">
          <mxGeometry width="50" height="50" relative="1" as="geometry">
            <mxPoint x="290" y="140" as="sourcePoint" />
            <mxPoint x="280" y="150" as="targetPoint" />
          </mxGeometry>
        </mxCell>
        <mxCell id="cATCjlfiW_CkpRkmnPD8-18" value="" style="endArrow=none;dashed=1;html=1;rounded=0;entryX=0.5;entryY=0;entryDx=0;entryDy=0;exitX=0.5;exitY=1;exitDx=0;exitDy=0;" edge="1" parent="1" source="cATCjlfiW_CkpRkmnPD8-6" target="cATCjlfiW_CkpRkmnPD8-9">
          <mxGeometry width="50" height="50" relative="1" as="geometry">
            <mxPoint x="300" y="150" as="sourcePoint" />
            <mxPoint x="390" y="120" as="targetPoint" />
          </mxGeometry>
        </mxCell>
        <mxCell id="cATCjlfiW_CkpRkmnPD8-19" value="" style="endArrow=none;dashed=1;html=1;rounded=0;entryX=0.5;entryY=1;entryDx=0;entryDy=0;exitX=0.25;exitY=0;exitDx=0;exitDy=0;" edge="1" parent="1" source="cATCjlfiW_CkpRkmnPD8-10" target="cATCjlfiW_CkpRkmnPD8-7">
          <mxGeometry width="50" height="50" relative="1" as="geometry">
            <mxPoint x="220" y="190" as="sourcePoint" />
            <mxPoint x="290" y="160" as="targetPoint" />
          </mxGeometry>
        </mxCell>
        <mxCell id="cATCjlfiW_CkpRkmnPD8-20" value="" style="endArrow=none;dashed=1;html=1;rounded=0;exitX=0.5;exitY=0;exitDx=0;exitDy=0;" edge="1" parent="1" source="cATCjlfiW_CkpRkmnPD8-11">
          <mxGeometry width="50" height="50" relative="1" as="geometry">
            <mxPoint x="230" y="200" as="sourcePoint" />
            <mxPoint x="460" y="150" as="targetPoint" />
          </mxGeometry>
        </mxCell>
        <mxCell id="cATCjlfiW_CkpRkmnPD8-21" value="" style="endArrow=none;dashed=1;html=1;rounded=0;exitX=0.5;exitY=0;exitDx=0;exitDy=0;entryX=0.5;entryY=1;entryDx=0;entryDy=0;" edge="1" parent="1" source="cATCjlfiW_CkpRkmnPD8-12" target="cATCjlfiW_CkpRkmnPD8-8">
          <mxGeometry width="50" height="50" relative="1" as="geometry">
            <mxPoint x="220" y="190" as="sourcePoint" />
            <mxPoint x="290" y="160" as="targetPoint" />
          </mxGeometry>
        </mxCell>
        <mxCell id="cATCjlfiW_CkpRkmnPD8-22" value="" style="endArrow=none;dashed=1;html=1;rounded=0;entryX=0.5;entryY=0;entryDx=0;entryDy=0;" edge="1" parent="1" target="cATCjlfiW_CkpRkmnPD8-13">
          <mxGeometry width="50" height="50" relative="1" as="geometry">
            <mxPoint x="200" y="210" as="sourcePoint" />
            <mxPoint x="300" y="170" as="targetPoint" />
          </mxGeometry>
        </mxCell>
        <mxCell id="cATCjlfiW_CkpRkmnPD8-23" value="4n/27" style="text;html=1;strokeColor=none;fillColor=none;align=center;verticalAlign=middle;whiteSpace=wrap;rounded=0;" vertex="1" parent="1">
          <mxGeometry x="440" y="230" width="60" height="30" as="geometry" />
        </mxCell>
        <mxCell id="cATCjlfiW_CkpRkmnPD8-24" value="" style="endArrow=none;dashed=1;html=1;rounded=0;entryX=0.5;entryY=1;entryDx=0;entryDy=0;exitX=0.5;exitY=0;exitDx=0;exitDy=0;" edge="1" parent="1" source="cATCjlfiW_CkpRkmnPD8-23" target="cATCjlfiW_CkpRkmnPD8-11">
          <mxGeometry width="50" height="50" relative="1" as="geometry">
            <mxPoint x="395" y="190" as="sourcePoint" />
            <mxPoint x="470" y="160" as="targetPoint" />
          </mxGeometry>
        </mxCell>
        <mxCell id="cATCjlfiW_CkpRkmnPD8-25" value="" style="endArrow=none;dashed=1;html=1;rounded=0;entryX=0.5;entryY=1;entryDx=0;entryDy=0;exitX=0.5;exitY=0;exitDx=0;exitDy=0;" edge="1" parent="1" source="cATCjlfiW_CkpRkmnPD8-14" target="cATCjlfiW_CkpRkmnPD8-11">
          <mxGeometry width="50" height="50" relative="1" as="geometry">
            <mxPoint x="405" y="200" as="sourcePoint" />
            <mxPoint x="480" y="170" as="targetPoint" />
          </mxGeometry>
        </mxCell>
        <mxCell id="cATCjlfiW_CkpRkmnPD8-26" value="" style="endArrow=none;dashed=1;html=1;dashPattern=1 3;strokeWidth=2;rounded=0;" edge="1" parent="1">
          <mxGeometry width="50" height="50" relative="1" as="geometry">
            <mxPoint x="160" y="310" as="sourcePoint" />
            <mxPoint x="160" y="260" as="targetPoint" />
          </mxGeometry>
        </mxCell>
        <mxCell id="cATCjlfiW_CkpRkmnPD8-27" value="" style="endArrow=none;dashed=1;html=1;dashPattern=1 3;strokeWidth=2;rounded=0;" edge="1" parent="1" target="cATCjlfiW_CkpRkmnPD8-13">
          <mxGeometry width="50" height="50" relative="1" as="geometry">
            <mxPoint x="230" y="300" as="sourcePoint" />
            <mxPoint x="170" y="270" as="targetPoint" />
          </mxGeometry>
        </mxCell>
        <mxCell id="cATCjlfiW_CkpRkmnPD8-28" value="" style="endArrow=none;dashed=1;html=1;dashPattern=1 3;strokeWidth=2;rounded=0;entryX=0.5;entryY=1;entryDx=0;entryDy=0;" edge="1" parent="1" target="cATCjlfiW_CkpRkmnPD8-9">
          <mxGeometry width="50" height="50" relative="1" as="geometry">
            <mxPoint x="300" y="240" as="sourcePoint" />
            <mxPoint x="240" y="270" as="targetPoint" />
          </mxGeometry>
        </mxCell>
        <mxCell id="cATCjlfiW_CkpRkmnPD8-29" value="" style="endArrow=none;dashed=1;html=1;dashPattern=1 3;strokeWidth=2;rounded=0;entryX=0.5;entryY=1;entryDx=0;entryDy=0;" edge="1" parent="1" target="cATCjlfiW_CkpRkmnPD8-10">
          <mxGeometry width="50" height="50" relative="1" as="geometry">
            <mxPoint x="400" y="250" as="sourcePoint" />
            <mxPoint x="240" y="270" as="targetPoint" />
          </mxGeometry>
        </mxCell>
        <mxCell id="cATCjlfiW_CkpRkmnPD8-30" value="" style="endArrow=none;dashed=1;html=1;dashPattern=1 3;strokeWidth=2;rounded=0;entryX=0.5;entryY=1;entryDx=0;entryDy=0;" edge="1" parent="1" target="cATCjlfiW_CkpRkmnPD8-23">
          <mxGeometry width="50" height="50" relative="1" as="geometry">
            <mxPoint x="470" y="290" as="sourcePoint" />
            <mxPoint x="410" y="220" as="targetPoint" />
          </mxGeometry>
        </mxCell>
        <mxCell id="cATCjlfiW_CkpRkmnPD8-31" value="" style="endArrow=none;dashed=1;html=1;dashPattern=1 3;strokeWidth=2;rounded=0;entryX=0.5;entryY=1;entryDx=0;entryDy=0;" edge="1" parent="1" target="cATCjlfiW_CkpRkmnPD8-14">
          <mxGeometry width="50" height="50" relative="1" as="geometry">
            <mxPoint x="540" y="290" as="sourcePoint" />
            <mxPoint x="480" y="270" as="targetPoint" />
          </mxGeometry>
        </mxCell>
        <mxCell id="cATCjlfiW_CkpRkmnPD8-32" value="" style="endArrow=none;dashed=1;html=1;rounded=0;" edge="1" parent="1">
          <mxGeometry width="50" height="50" relative="1" as="geometry">
            <mxPoint x="390" y="84.58" as="sourcePoint" />
            <mxPoint x="620" y="85" as="targetPoint" />
          </mxGeometry>
        </mxCell>
        <mxCell id="cATCjlfiW_CkpRkmnPD8-33" value="cn" style="text;html=1;strokeColor=none;fillColor=none;align=center;verticalAlign=middle;whiteSpace=wrap;rounded=0;" vertex="1" parent="1">
          <mxGeometry x="622" y="70" width="60" height="30" as="geometry" />
        </mxCell>
        <mxCell id="cATCjlfiW_CkpRkmnPD8-34" value="" style="endArrow=none;dashed=1;html=1;rounded=0;" edge="1" parent="1">
          <mxGeometry width="50" height="50" relative="1" as="geometry">
            <mxPoint x="510" y="135" as="sourcePoint" />
            <mxPoint x="620" y="135" as="targetPoint" />
          </mxGeometry>
        </mxCell>
        <mxCell id="cATCjlfiW_CkpRkmnPD8-35" value="cn" style="text;html=1;strokeColor=none;fillColor=none;align=center;verticalAlign=middle;whiteSpace=wrap;rounded=0;" vertex="1" parent="1">
          <mxGeometry x="622" y="120" width="60" height="30" as="geometry" />
        </mxCell>
        <mxCell id="cATCjlfiW_CkpRkmnPD8-36" value="" style="endArrow=none;dashed=1;html=1;rounded=0;" edge="1" parent="1">
          <mxGeometry width="50" height="50" relative="1" as="geometry">
            <mxPoint x="550" y="195" as="sourcePoint" />
            <mxPoint x="620" y="195" as="targetPoint" />
          </mxGeometry>
        </mxCell>
        <mxCell id="cATCjlfiW_CkpRkmnPD8-37" value="cn" style="text;html=1;strokeColor=none;fillColor=none;align=center;verticalAlign=middle;whiteSpace=wrap;rounded=0;" vertex="1" parent="1">
          <mxGeometry x="622" y="180" width="60" height="30" as="geometry" />
        </mxCell>
        <mxCell id="cATCjlfiW_CkpRkmnPD8-38" value="" style="endArrow=none;dashed=1;html=1;rounded=0;" edge="1" parent="1">
          <mxGeometry width="50" height="50" relative="1" as="geometry">
            <mxPoint x="580" y="245" as="sourcePoint" />
            <mxPoint x="620" y="245" as="targetPoint" />
          </mxGeometry>
        </mxCell>
        <mxCell id="cATCjlfiW_CkpRkmnPD8-39" value="cn" style="text;html=1;strokeColor=none;fillColor=none;align=center;verticalAlign=middle;whiteSpace=wrap;rounded=0;" vertex="1" parent="1">
          <mxGeometry x="622" y="230" width="60" height="30" as="geometry" />
        </mxCell>
        <mxCell id="cATCjlfiW_CkpRkmnPD8-40" value="" style="endArrow=none;dashed=1;html=1;dashPattern=1 3;strokeWidth=2;rounded=0;entryX=0.5;entryY=1;entryDx=0;entryDy=0;" edge="1" parent="1" target="cATCjlfiW_CkpRkmnPD8-39">
          <mxGeometry width="50" height="50" relative="1" as="geometry">
            <mxPoint x="652" y="292" as="sourcePoint" />
            <mxPoint x="550" y="270" as="targetPoint" />
          </mxGeometry>
        </mxCell>
        <mxCell id="cATCjlfiW_CkpRkmnPD8-41" value="" style="shape=curlyBracket;whiteSpace=wrap;html=1;rounded=1;" vertex="1" parent="1">
          <mxGeometry x="110" y="75" width="20" height="235" as="geometry" />
        </mxCell>
        <mxCell id="cATCjlfiW_CkpRkmnPD8-42" value="hight &amp;gt; log_3(n)" style="text;html=1;strokeColor=none;fillColor=none;align=center;verticalAlign=middle;whiteSpace=wrap;rounded=0;" vertex="1" parent="1">
          <mxGeometry x="40" y="180" width="60" height="30" as="geometry" />
        </mxCell>
        <mxCell id="cATCjlfiW_CkpRkmnPD8-48" value="0" style="rounded=0;whiteSpace=wrap;html=1;" vertex="1" parent="1">
          <mxGeometry x="77" y="381" width="46" height="31" as="geometry" />
        </mxCell>
        <mxCell id="cATCjlfiW_CkpRkmnPD8-66" style="edgeStyle=orthogonalEdgeStyle;rounded=0;orthogonalLoop=1;jettySize=auto;html=1;exitX=1;exitY=0.5;exitDx=0;exitDy=0;entryX=0;entryY=0.5;entryDx=0;entryDy=0;" edge="1" parent="1" source="cATCjlfiW_CkpRkmnPD8-49" target="cATCjlfiW_CkpRkmnPD8-57">
          <mxGeometry relative="1" as="geometry" />
        </mxCell>
        <mxCell id="cATCjlfiW_CkpRkmnPD8-49" value="1" style="rounded=0;whiteSpace=wrap;html=1;" vertex="1" parent="1">
          <mxGeometry x="77" y="412" width="46" height="31" as="geometry" />
        </mxCell>
        <mxCell id="cATCjlfiW_CkpRkmnPD8-69" style="edgeStyle=orthogonalEdgeStyle;rounded=0;orthogonalLoop=1;jettySize=auto;html=1;exitX=1;exitY=0.5;exitDx=0;exitDy=0;entryX=0;entryY=0.5;entryDx=0;entryDy=0;" edge="1" parent="1" source="cATCjlfiW_CkpRkmnPD8-50" target="cATCjlfiW_CkpRkmnPD8-60">
          <mxGeometry relative="1" as="geometry" />
        </mxCell>
        <mxCell id="cATCjlfiW_CkpRkmnPD8-50" value="2" style="rounded=0;whiteSpace=wrap;html=1;" vertex="1" parent="1">
          <mxGeometry x="77" y="443" width="46" height="31" as="geometry" />
        </mxCell>
        <mxCell id="cATCjlfiW_CkpRkmnPD8-70" style="edgeStyle=orthogonalEdgeStyle;rounded=0;orthogonalLoop=1;jettySize=auto;html=1;exitX=1;exitY=0.5;exitDx=0;exitDy=0;entryX=0;entryY=0.5;entryDx=0;entryDy=0;" edge="1" parent="1" source="cATCjlfiW_CkpRkmnPD8-51" target="cATCjlfiW_CkpRkmnPD8-61">
          <mxGeometry relative="1" as="geometry" />
        </mxCell>
        <mxCell id="cATCjlfiW_CkpRkmnPD8-51" value="3" style="rounded=0;whiteSpace=wrap;html=1;" vertex="1" parent="1">
          <mxGeometry x="77" y="474" width="46" height="31" as="geometry" />
        </mxCell>
        <mxCell id="cATCjlfiW_CkpRkmnPD8-52" value="4" style="rounded=0;whiteSpace=wrap;html=1;" vertex="1" parent="1">
          <mxGeometry x="77" y="505" width="46" height="31" as="geometry" />
        </mxCell>
        <mxCell id="cATCjlfiW_CkpRkmnPD8-71" style="edgeStyle=orthogonalEdgeStyle;rounded=0;orthogonalLoop=1;jettySize=auto;html=1;exitX=1;exitY=0.5;exitDx=0;exitDy=0;entryX=0;entryY=0.5;entryDx=0;entryDy=0;" edge="1" parent="1" source="cATCjlfiW_CkpRkmnPD8-53" target="cATCjlfiW_CkpRkmnPD8-62">
          <mxGeometry relative="1" as="geometry" />
        </mxCell>
        <mxCell id="cATCjlfiW_CkpRkmnPD8-53" value="5" style="rounded=0;whiteSpace=wrap;html=1;" vertex="1" parent="1">
          <mxGeometry x="77" y="536" width="46" height="31" as="geometry" />
        </mxCell>
        <mxCell id="cATCjlfiW_CkpRkmnPD8-72" style="edgeStyle=orthogonalEdgeStyle;rounded=0;orthogonalLoop=1;jettySize=auto;html=1;exitX=1;exitY=0.5;exitDx=0;exitDy=0;" edge="1" parent="1" source="cATCjlfiW_CkpRkmnPD8-54">
          <mxGeometry relative="1" as="geometry">
            <mxPoint x="153.51723296066814" y="582.551724137931" as="targetPoint" />
          </mxGeometry>
        </mxCell>
        <mxCell id="cATCjlfiW_CkpRkmnPD8-54" value="6" style="rounded=0;whiteSpace=wrap;html=1;" vertex="1" parent="1">
          <mxGeometry x="77" y="567" width="46" height="31" as="geometry" />
        </mxCell>
        <mxCell id="cATCjlfiW_CkpRkmnPD8-55" value="7" style="rounded=0;whiteSpace=wrap;html=1;" vertex="1" parent="1">
          <mxGeometry x="77" y="598" width="46" height="31" as="geometry" />
        </mxCell>
        <mxCell id="cATCjlfiW_CkpRkmnPD8-76" style="edgeStyle=orthogonalEdgeStyle;rounded=0;orthogonalLoop=1;jettySize=auto;html=1;exitX=1;exitY=0.5;exitDx=0;exitDy=0;entryX=0;entryY=0.5;entryDx=0;entryDy=0;" edge="1" parent="1" source="cATCjlfiW_CkpRkmnPD8-56" target="cATCjlfiW_CkpRkmnPD8-65">
          <mxGeometry relative="1" as="geometry" />
        </mxCell>
        <mxCell id="cATCjlfiW_CkpRkmnPD8-56" value="8" style="rounded=0;whiteSpace=wrap;html=1;" vertex="1" parent="1">
          <mxGeometry x="77" y="629" width="46" height="31" as="geometry" />
        </mxCell>
        <mxCell id="cATCjlfiW_CkpRkmnPD8-67" style="edgeStyle=orthogonalEdgeStyle;rounded=0;orthogonalLoop=1;jettySize=auto;html=1;exitX=1;exitY=0.5;exitDx=0;exitDy=0;entryX=0;entryY=0.5;entryDx=0;entryDy=0;" edge="1" parent="1" source="cATCjlfiW_CkpRkmnPD8-57" target="cATCjlfiW_CkpRkmnPD8-58">
          <mxGeometry relative="1" as="geometry" />
        </mxCell>
        <mxCell id="cATCjlfiW_CkpRkmnPD8-57" value="10" style="rounded=0;whiteSpace=wrap;html=1;" vertex="1" parent="1">
          <mxGeometry x="154" y="412" width="46" height="31" as="geometry" />
        </mxCell>
        <mxCell id="cATCjlfiW_CkpRkmnPD8-68" style="edgeStyle=orthogonalEdgeStyle;rounded=0;orthogonalLoop=1;jettySize=auto;html=1;exitX=1;exitY=0.5;exitDx=0;exitDy=0;entryX=0;entryY=0.5;entryDx=0;entryDy=0;" edge="1" parent="1" source="cATCjlfiW_CkpRkmnPD8-58" target="cATCjlfiW_CkpRkmnPD8-59">
          <mxGeometry relative="1" as="geometry" />
        </mxCell>
        <mxCell id="cATCjlfiW_CkpRkmnPD8-58" value="19" style="rounded=0;whiteSpace=wrap;html=1;" vertex="1" parent="1">
          <mxGeometry x="224" y="412" width="46" height="31" as="geometry" />
        </mxCell>
        <mxCell id="cATCjlfiW_CkpRkmnPD8-59" value="28" style="rounded=0;whiteSpace=wrap;html=1;" vertex="1" parent="1">
          <mxGeometry x="294" y="412" width="46" height="31" as="geometry" />
        </mxCell>
        <mxCell id="cATCjlfiW_CkpRkmnPD8-60" value="20" style="rounded=0;whiteSpace=wrap;html=1;" vertex="1" parent="1">
          <mxGeometry x="154" y="443" width="46" height="31" as="geometry" />
        </mxCell>
        <mxCell id="cATCjlfiW_CkpRkmnPD8-61" value="12" style="rounded=0;whiteSpace=wrap;html=1;" vertex="1" parent="1">
          <mxGeometry x="154" y="474" width="46" height="31" as="geometry" />
        </mxCell>
        <mxCell id="cATCjlfiW_CkpRkmnPD8-62" value="5" style="rounded=0;whiteSpace=wrap;html=1;" vertex="1" parent="1">
          <mxGeometry x="154" y="536" width="46" height="31" as="geometry" />
        </mxCell>
        <mxCell id="cATCjlfiW_CkpRkmnPD8-73" style="edgeStyle=orthogonalEdgeStyle;rounded=0;orthogonalLoop=1;jettySize=auto;html=1;exitX=1;exitY=0.5;exitDx=0;exitDy=0;entryX=0;entryY=0.5;entryDx=0;entryDy=0;" edge="1" parent="1" source="cATCjlfiW_CkpRkmnPD8-63" target="cATCjlfiW_CkpRkmnPD8-64">
          <mxGeometry relative="1" as="geometry" />
        </mxCell>
        <mxCell id="cATCjlfiW_CkpRkmnPD8-63" value="33" style="rounded=0;whiteSpace=wrap;html=1;" vertex="1" parent="1">
          <mxGeometry x="154" y="567" width="46" height="31" as="geometry" />
        </mxCell>
        <mxCell id="cATCjlfiW_CkpRkmnPD8-64" value="15" style="rounded=0;whiteSpace=wrap;html=1;" vertex="1" parent="1">
          <mxGeometry x="230" y="567" width="46" height="31" as="geometry" />
        </mxCell>
        <mxCell id="cATCjlfiW_CkpRkmnPD8-65" value="17" style="rounded=0;whiteSpace=wrap;html=1;" vertex="1" parent="1">
          <mxGeometry x="154" y="629" width="46" height="31" as="geometry" />
        </mxCell>
        <mxCell id="cATCjlfiW_CkpRkmnPD8-77" value="h(k)" style="text;html=1;strokeColor=none;fillColor=none;align=center;verticalAlign=middle;whiteSpace=wrap;rounded=0;" vertex="1" parent="1">
          <mxGeometry x="70" y="355" width="60" height="30" as="geometry" />
        </mxCell>
        <mxCell id="cATCjlfiW_CkpRkmnPD8-79" value="key" style="text;html=1;strokeColor=none;fillColor=none;align=center;verticalAlign=middle;whiteSpace=wrap;rounded=0;" vertex="1" parent="1">
          <mxGeometry x="210" y="355" width="60" height="30" as="geometry" />
        </mxCell>
        <mxCell id="cATCjlfiW_CkpRkmnPD8-80" value="" style="shape=curlyBracket;whiteSpace=wrap;html=1;rounded=1;flipH=1;rotation=-90;" vertex="1" parent="1">
          <mxGeometry x="226" y="308" width="20" height="164" as="geometry" />
        </mxCell>
        <mxCell id="cATCjlfiW_CkpRkmnPD8-82" value="22" style="rounded=0;whiteSpace=wrap;html=1;" vertex="1" parent="1">
          <mxGeometry x="77" y="731" width="36" height="26" as="geometry" />
        </mxCell>
        <mxCell id="cATCjlfiW_CkpRkmnPD8-83" value="88" style="rounded=0;whiteSpace=wrap;html=1;" vertex="1" parent="1">
          <mxGeometry x="113" y="731" width="36" height="26" as="geometry" />
        </mxCell>
        <mxCell id="cATCjlfiW_CkpRkmnPD8-84" value="" style="rounded=0;whiteSpace=wrap;html=1;" vertex="1" parent="1">
          <mxGeometry x="149" y="731" width="36" height="26" as="geometry" />
        </mxCell>
        <mxCell id="cATCjlfiW_CkpRkmnPD8-86" value="" style="rounded=0;whiteSpace=wrap;html=1;" vertex="1" parent="1">
          <mxGeometry x="185" y="731" width="36" height="26" as="geometry" />
        </mxCell>
        <mxCell id="cATCjlfiW_CkpRkmnPD8-87" value="4" style="rounded=0;whiteSpace=wrap;html=1;" vertex="1" parent="1">
          <mxGeometry x="221" y="731" width="36" height="26" as="geometry" />
        </mxCell>
        <mxCell id="cATCjlfiW_CkpRkmnPD8-88" value="15" style="rounded=0;whiteSpace=wrap;html=1;" vertex="1" parent="1">
          <mxGeometry x="257" y="731" width="36" height="26" as="geometry" />
        </mxCell>
        <mxCell id="cATCjlfiW_CkpRkmnPD8-89" value="28" style="rounded=0;whiteSpace=wrap;html=1;" vertex="1" parent="1">
          <mxGeometry x="293" y="731" width="36" height="26" as="geometry" />
        </mxCell>
        <mxCell id="cATCjlfiW_CkpRkmnPD8-90" value="17" style="rounded=0;whiteSpace=wrap;html=1;" vertex="1" parent="1">
          <mxGeometry x="329" y="731" width="36" height="26" as="geometry" />
        </mxCell>
        <mxCell id="cATCjlfiW_CkpRkmnPD8-91" value="59" style="rounded=0;whiteSpace=wrap;html=1;" vertex="1" parent="1">
          <mxGeometry x="365" y="731" width="36" height="26" as="geometry" />
        </mxCell>
        <mxCell id="cATCjlfiW_CkpRkmnPD8-92" value="31" style="rounded=0;whiteSpace=wrap;html=1;" vertex="1" parent="1">
          <mxGeometry x="401" y="731" width="36" height="26" as="geometry" />
        </mxCell>
        <mxCell id="cATCjlfiW_CkpRkmnPD8-93" value="10" style="rounded=0;whiteSpace=wrap;html=1;" vertex="1" parent="1">
          <mxGeometry x="437" y="731" width="36" height="26" as="geometry" />
        </mxCell>
        <mxCell id="cATCjlfiW_CkpRkmnPD8-94" value="22" style="rounded=0;whiteSpace=wrap;html=1;" vertex="1" parent="1">
          <mxGeometry x="77" y="799" width="36" height="26" as="geometry" />
        </mxCell>
        <mxCell id="cATCjlfiW_CkpRkmnPD8-95" value="" style="rounded=0;whiteSpace=wrap;html=1;" vertex="1" parent="1">
          <mxGeometry x="113" y="799" width="36" height="26" as="geometry" />
        </mxCell>
        <mxCell id="cATCjlfiW_CkpRkmnPD8-96" value="88" style="rounded=0;whiteSpace=wrap;html=1;" vertex="1" parent="1">
          <mxGeometry x="149" y="799" width="36" height="26" as="geometry" />
        </mxCell>
        <mxCell id="cATCjlfiW_CkpRkmnPD8-97" value="17" style="rounded=0;whiteSpace=wrap;html=1;" vertex="1" parent="1">
          <mxGeometry x="185" y="799" width="36" height="26" as="geometry" />
        </mxCell>
        <mxCell id="cATCjlfiW_CkpRkmnPD8-98" value="4" style="rounded=0;whiteSpace=wrap;html=1;" vertex="1" parent="1">
          <mxGeometry x="221" y="799" width="36" height="26" as="geometry" />
        </mxCell>
        <mxCell id="cATCjlfiW_CkpRkmnPD8-99" value="" style="rounded=0;whiteSpace=wrap;html=1;" vertex="1" parent="1">
          <mxGeometry x="257" y="799" width="36" height="26" as="geometry" />
        </mxCell>
        <mxCell id="cATCjlfiW_CkpRkmnPD8-100" value="28" style="rounded=0;whiteSpace=wrap;html=1;" vertex="1" parent="1">
          <mxGeometry x="293" y="799" width="36" height="26" as="geometry" />
        </mxCell>
        <mxCell id="cATCjlfiW_CkpRkmnPD8-101" value="59" style="rounded=0;whiteSpace=wrap;html=1;" vertex="1" parent="1">
          <mxGeometry x="329" y="799" width="36" height="26" as="geometry" />
        </mxCell>
        <mxCell id="cATCjlfiW_CkpRkmnPD8-102" value="15" style="rounded=0;whiteSpace=wrap;html=1;" vertex="1" parent="1">
          <mxGeometry x="365" y="799" width="36" height="26" as="geometry" />
        </mxCell>
        <mxCell id="cATCjlfiW_CkpRkmnPD8-103" value="31" style="rounded=0;whiteSpace=wrap;html=1;" vertex="1" parent="1">
          <mxGeometry x="401" y="799" width="36" height="26" as="geometry" />
        </mxCell>
        <mxCell id="cATCjlfiW_CkpRkmnPD8-104" value="10" style="rounded=0;whiteSpace=wrap;html=1;" vertex="1" parent="1">
          <mxGeometry x="437" y="799" width="36" height="26" as="geometry" />
        </mxCell>
        <mxCell id="cATCjlfiW_CkpRkmnPD8-105" value="22" style="rounded=0;whiteSpace=wrap;html=1;" vertex="1" parent="1">
          <mxGeometry x="77" y="862" width="36" height="26" as="geometry" />
        </mxCell>
        <mxCell id="cATCjlfiW_CkpRkmnPD8-106" value="" style="rounded=0;whiteSpace=wrap;html=1;" vertex="1" parent="1">
          <mxGeometry x="113" y="862" width="36" height="26" as="geometry" />
        </mxCell>
        <mxCell id="cATCjlfiW_CkpRkmnPD8-107" value="59" style="rounded=0;whiteSpace=wrap;html=1;" vertex="1" parent="1">
          <mxGeometry x="149" y="862" width="36" height="26" as="geometry" />
        </mxCell>
        <mxCell id="cATCjlfiW_CkpRkmnPD8-108" value="17" style="rounded=0;whiteSpace=wrap;html=1;" vertex="1" parent="1">
          <mxGeometry x="185" y="862" width="36" height="26" as="geometry" />
        </mxCell>
        <mxCell id="cATCjlfiW_CkpRkmnPD8-109" value="4" style="rounded=0;whiteSpace=wrap;html=1;" vertex="1" parent="1">
          <mxGeometry x="221" y="862" width="36" height="26" as="geometry" />
        </mxCell>
        <mxCell id="cATCjlfiW_CkpRkmnPD8-110" value="15" style="rounded=0;whiteSpace=wrap;html=1;" vertex="1" parent="1">
          <mxGeometry x="257" y="862" width="36" height="26" as="geometry" />
        </mxCell>
        <mxCell id="cATCjlfiW_CkpRkmnPD8-111" value="28" style="rounded=0;whiteSpace=wrap;html=1;" vertex="1" parent="1">
          <mxGeometry x="293" y="862" width="36" height="26" as="geometry" />
        </mxCell>
        <mxCell id="cATCjlfiW_CkpRkmnPD8-112" value="88" style="rounded=0;whiteSpace=wrap;html=1;" vertex="1" parent="1">
          <mxGeometry x="329" y="862" width="36" height="26" as="geometry" />
        </mxCell>
        <mxCell id="cATCjlfiW_CkpRkmnPD8-113" value="" style="rounded=0;whiteSpace=wrap;html=1;" vertex="1" parent="1">
          <mxGeometry x="365" y="862" width="36" height="26" as="geometry" />
        </mxCell>
        <mxCell id="cATCjlfiW_CkpRkmnPD8-114" value="31" style="rounded=0;whiteSpace=wrap;html=1;" vertex="1" parent="1">
          <mxGeometry x="401" y="862" width="36" height="26" as="geometry" />
        </mxCell>
        <mxCell id="cATCjlfiW_CkpRkmnPD8-115" value="10" style="rounded=0;whiteSpace=wrap;html=1;" vertex="1" parent="1">
          <mxGeometry x="437" y="862" width="36" height="26" as="geometry" />
        </mxCell>
        <mxCell id="cATCjlfiW_CkpRkmnPD8-116" value="linear probing" style="text;html=1;strokeColor=none;fillColor=none;align=center;verticalAlign=middle;whiteSpace=wrap;rounded=0;" vertex="1" parent="1">
          <mxGeometry x="70" y="705" width="92" height="30" as="geometry" />
        </mxCell>
        <mxCell id="cATCjlfiW_CkpRkmnPD8-117" value="quadratic probing" style="text;html=1;strokeColor=none;fillColor=none;align=center;verticalAlign=middle;whiteSpace=wrap;rounded=0;" vertex="1" parent="1">
          <mxGeometry x="77" y="772" width="101" height="30" as="geometry" />
        </mxCell>
        <mxCell id="cATCjlfiW_CkpRkmnPD8-119" value="double hashing" style="text;html=1;strokeColor=none;fillColor=none;align=center;verticalAlign=middle;whiteSpace=wrap;rounded=0;" vertex="1" parent="1">
          <mxGeometry x="70" y="837" width="92" height="30" as="geometry" />
        </mxCell>
        <mxCell id="cATCjlfiW_CkpRkmnPD8-121" value="" style="rounded=0;whiteSpace=wrap;html=1;" vertex="1" parent="1">
          <mxGeometry x="51" y="1012" width="45" height="29" as="geometry" />
        </mxCell>
        <mxCell id="cATCjlfiW_CkpRkmnPD8-122" value="0/3" style="rounded=0;whiteSpace=wrap;html=1;" vertex="1" parent="1">
          <mxGeometry x="96" y="1012" width="45" height="29" as="geometry" />
        </mxCell>
        <mxCell id="cATCjlfiW_CkpRkmnPD8-123" value="" style="rounded=0;whiteSpace=wrap;html=1;" vertex="1" parent="1">
          <mxGeometry x="141" y="1012" width="45" height="29" as="geometry" />
        </mxCell>
        <mxCell id="cATCjlfiW_CkpRkmnPD8-124" value="" style="rounded=0;whiteSpace=wrap;html=1;" vertex="1" parent="1">
          <mxGeometry x="186" y="1012" width="45" height="29" as="geometry" />
        </mxCell>
        <mxCell id="cATCjlfiW_CkpRkmnPD8-125" value="2" style="rounded=0;whiteSpace=wrap;html=1;" vertex="1" parent="1">
          <mxGeometry x="231" y="1012" width="45" height="29" as="geometry" />
        </mxCell>
        <mxCell id="cATCjlfiW_CkpRkmnPD8-126" value="" style="rounded=0;whiteSpace=wrap;html=1;" vertex="1" parent="1">
          <mxGeometry x="275.5" y="1012" width="45" height="29" as="geometry" />
        </mxCell>
        <mxCell id="cATCjlfiW_CkpRkmnPD8-127" value="" style="rounded=0;whiteSpace=wrap;html=1;" vertex="1" parent="1">
          <mxGeometry x="320.5" y="1012" width="45" height="29" as="geometry" />
        </mxCell>
        <mxCell id="cATCjlfiW_CkpRkmnPD8-128" value="1" style="rounded=0;whiteSpace=wrap;html=1;" vertex="1" parent="1">
          <mxGeometry x="365.5" y="1012" width="45" height="29" as="geometry" />
        </mxCell>
        <mxCell id="cATCjlfiW_CkpRkmnPD8-129" value="" style="rounded=0;whiteSpace=wrap;html=1;" vertex="1" parent="1">
          <mxGeometry x="410.5" y="1012" width="45" height="29" as="geometry" />
        </mxCell>
        <mxCell id="cATCjlfiW_CkpRkmnPD8-130" value="Suppose &lt;br style=&quot;font-size: 12px;&quot;&gt;m=9, h1(k)=1, h2(k)=6&lt;br style=&quot;font-size: 12px;&quot;&gt;then&amp;nbsp; d=3, l=18, repeat h2(k) 3 times just back to beginning" style="text;html=1;strokeColor=none;fillColor=none;align=center;verticalAlign=middle;whiteSpace=wrap;rounded=0;imageHeight=24;spacingTop=0;spacing=0;fontSize=12;" vertex="1" parent="1">
          <mxGeometry x="66" y="1063" width="368" height="66" as="geometry" />
        </mxCell>
        <mxCell id="cATCjlfiW_CkpRkmnPD8-131" value="" style="curved=1;endArrow=classic;html=1;rounded=0;" edge="1" parent="1">
          <mxGeometry width="50" height="50" relative="1" as="geometry">
            <mxPoint x="114" y="1010" as="sourcePoint" />
            <mxPoint x="392" y="1010" as="targetPoint" />
            <Array as="points">
              <mxPoint x="134" y="989" />
              <mxPoint x="219" y="982" />
            </Array>
          </mxGeometry>
        </mxCell>
        <mxCell id="cATCjlfiW_CkpRkmnPD8-133" value="" style="curved=1;endArrow=classic;html=1;rounded=0;entryX=0.5;entryY=1;entryDx=0;entryDy=0;" edge="1" parent="1" target="cATCjlfiW_CkpRkmnPD8-125">
          <mxGeometry width="50" height="50" relative="1" as="geometry">
            <mxPoint x="390" y="1010" as="sourcePoint" />
            <mxPoint x="520" y="1058" as="targetPoint" />
            <Array as="points">
              <mxPoint x="498" y="994" />
              <mxPoint x="431" y="1089" />
            </Array>
          </mxGeometry>
        </mxCell>
        <mxCell id="cATCjlfiW_CkpRkmnPD8-134" value="" style="curved=1;endArrow=classic;html=1;rounded=0;entryX=0.5;entryY=1;entryDx=0;entryDy=0;" edge="1" parent="1" source="cATCjlfiW_CkpRkmnPD8-125" target="cATCjlfiW_CkpRkmnPD8-122">
          <mxGeometry width="50" height="50" relative="1" as="geometry">
            <mxPoint x="258" y="1043" as="sourcePoint" />
            <mxPoint x="225" y="1083" as="targetPoint" />
            <Array as="points">
              <mxPoint x="230" y="1060" />
              <mxPoint x="175" y="1083" />
            </Array>
          </mxGeometry>
        </mxCell>
      </root>
    </mxGraphModel>
  </diagram>
  <diagram id="jXjA7SwNoPhoOxAMTizW" name="第 2 页">
    <mxGraphModel dx="865" dy="476" grid="0" gridSize="10" guides="1" tooltips="1" connect="1" arrows="0" fold="1" page="1" pageScale="1" pageWidth="827" pageHeight="1169" math="0" shadow="0">
      <root>
        <mxCell id="0" />
        <mxCell id="1" parent="0" />
        <mxCell id="wTyc-cyMKVWt9Ad9M723-12" style="edgeStyle=none;rounded=0;orthogonalLoop=1;jettySize=auto;html=1;exitX=0.5;exitY=1;exitDx=0;exitDy=0;entryX=0.5;entryY=0;entryDx=0;entryDy=0;fontSize=12;exitPerimeter=0;endArrow=none;endFill=0;" edge="1" parent="1" source="wTyc-cyMKVWt9Ad9M723-1" target="wTyc-cyMKVWt9Ad9M723-2">
          <mxGeometry relative="1" as="geometry" />
        </mxCell>
        <mxCell id="wTyc-cyMKVWt9Ad9M723-13" style="edgeStyle=none;rounded=0;orthogonalLoop=1;jettySize=auto;html=1;exitX=0.5;exitY=1;exitDx=0;exitDy=0;entryX=0.5;entryY=0;entryDx=0;entryDy=0;fontSize=12;endArrow=none;endFill=0;" edge="1" parent="1" source="wTyc-cyMKVWt9Ad9M723-1" target="wTyc-cyMKVWt9Ad9M723-3">
          <mxGeometry relative="1" as="geometry" />
        </mxCell>
        <mxCell id="wTyc-cyMKVWt9Ad9M723-1" value="10" style="text;html=1;strokeColor=none;fillColor=none;align=center;verticalAlign=middle;whiteSpace=wrap;rounded=0;fontSize=12;" vertex="1" parent="1">
          <mxGeometry x="80" y="13" width="60" height="22" as="geometry" />
        </mxCell>
        <mxCell id="wTyc-cyMKVWt9Ad9M723-14" style="edgeStyle=none;rounded=0;orthogonalLoop=1;jettySize=auto;html=1;exitX=0.5;exitY=1;exitDx=0;exitDy=0;entryX=0.5;entryY=0;entryDx=0;entryDy=0;fontSize=12;endArrow=none;endFill=0;" edge="1" parent="1" source="wTyc-cyMKVWt9Ad9M723-2" target="wTyc-cyMKVWt9Ad9M723-4">
          <mxGeometry relative="1" as="geometry" />
        </mxCell>
        <mxCell id="wTyc-cyMKVWt9Ad9M723-15" style="edgeStyle=none;rounded=0;orthogonalLoop=1;jettySize=auto;html=1;exitX=0.5;exitY=1;exitDx=0;exitDy=0;entryX=0.5;entryY=0;entryDx=0;entryDy=0;fontSize=12;endArrow=none;endFill=0;" edge="1" parent="1" source="wTyc-cyMKVWt9Ad9M723-2" target="wTyc-cyMKVWt9Ad9M723-5">
          <mxGeometry relative="1" as="geometry" />
        </mxCell>
        <mxCell id="wTyc-cyMKVWt9Ad9M723-2" value="4" style="text;html=1;strokeColor=none;fillColor=none;align=center;verticalAlign=middle;whiteSpace=wrap;rounded=0;fontSize=12;" vertex="1" parent="1">
          <mxGeometry x="37" y="50" width="60" height="30" as="geometry" />
        </mxCell>
        <mxCell id="wTyc-cyMKVWt9Ad9M723-16" style="edgeStyle=none;rounded=0;orthogonalLoop=1;jettySize=auto;html=1;exitX=0.5;exitY=1;exitDx=0;exitDy=0;entryX=0.5;entryY=0;entryDx=0;entryDy=0;fontSize=12;endArrow=none;endFill=0;" edge="1" parent="1" source="wTyc-cyMKVWt9Ad9M723-3" target="wTyc-cyMKVWt9Ad9M723-7">
          <mxGeometry relative="1" as="geometry" />
        </mxCell>
        <mxCell id="wTyc-cyMKVWt9Ad9M723-17" style="edgeStyle=none;rounded=0;orthogonalLoop=1;jettySize=auto;html=1;exitX=0.5;exitY=1;exitDx=0;exitDy=0;entryX=0.5;entryY=0;entryDx=0;entryDy=0;fontSize=12;endArrow=none;endFill=0;" edge="1" parent="1" source="wTyc-cyMKVWt9Ad9M723-3" target="wTyc-cyMKVWt9Ad9M723-8">
          <mxGeometry relative="1" as="geometry" />
        </mxCell>
        <mxCell id="wTyc-cyMKVWt9Ad9M723-3" value="17" style="text;html=1;strokeColor=none;fillColor=none;align=center;verticalAlign=middle;whiteSpace=wrap;rounded=0;fontSize=12;" vertex="1" parent="1">
          <mxGeometry x="121" y="50" width="60" height="30" as="geometry" />
        </mxCell>
        <mxCell id="wTyc-cyMKVWt9Ad9M723-4" value="1" style="text;html=1;strokeColor=none;fillColor=none;align=center;verticalAlign=middle;whiteSpace=wrap;rounded=0;fontSize=12;" vertex="1" parent="1">
          <mxGeometry x="20" y="102" width="60" height="30" as="geometry" />
        </mxCell>
        <mxCell id="wTyc-cyMKVWt9Ad9M723-5" value="5" style="text;html=1;strokeColor=none;fillColor=none;align=center;verticalAlign=middle;whiteSpace=wrap;rounded=0;fontSize=12;" vertex="1" parent="1">
          <mxGeometry x="53" y="99" width="60" height="30" as="geometry" />
        </mxCell>
        <mxCell id="wTyc-cyMKVWt9Ad9M723-7" value="16" style="text;html=1;strokeColor=none;fillColor=none;align=center;verticalAlign=middle;whiteSpace=wrap;rounded=0;fontSize=12;" vertex="1" parent="1">
          <mxGeometry x="92" y="99" width="60" height="30" as="geometry" />
        </mxCell>
        <mxCell id="wTyc-cyMKVWt9Ad9M723-8" value="21" style="text;html=1;strokeColor=none;fillColor=none;align=center;verticalAlign=middle;whiteSpace=wrap;rounded=0;fontSize=12;" vertex="1" parent="1">
          <mxGeometry x="148" y="96" width="60" height="30" as="geometry" />
        </mxCell>
        <mxCell id="wTyc-cyMKVWt9Ad9M723-18" value="hight 2" style="text;html=1;strokeColor=none;fillColor=none;align=center;verticalAlign=middle;whiteSpace=wrap;rounded=0;fontSize=12;" vertex="1" parent="1">
          <mxGeometry x="76" y="159" width="60" height="30" as="geometry" />
        </mxCell>
        <mxCell id="wTyc-cyMKVWt9Ad9M723-41" style="edgeStyle=none;rounded=0;orthogonalLoop=1;jettySize=auto;html=1;exitX=0.5;exitY=1;exitDx=0;exitDy=0;entryX=0.594;entryY=-0.033;entryDx=0;entryDy=0;entryPerimeter=0;fontSize=12;endArrow=none;endFill=0;" edge="1" parent="1" source="wTyc-cyMKVWt9Ad9M723-30" target="wTyc-cyMKVWt9Ad9M723-38">
          <mxGeometry relative="1" as="geometry" />
        </mxCell>
        <mxCell id="wTyc-cyMKVWt9Ad9M723-30" value="10" style="text;html=1;strokeColor=none;fillColor=none;align=center;verticalAlign=middle;whiteSpace=wrap;rounded=0;fontSize=12;" vertex="1" parent="1">
          <mxGeometry x="267" y="15" width="60" height="22" as="geometry" />
        </mxCell>
        <mxCell id="wTyc-cyMKVWt9Ad9M723-42" style="edgeStyle=none;rounded=0;orthogonalLoop=1;jettySize=auto;html=1;exitX=0.5;exitY=0;exitDx=0;exitDy=0;entryX=0.5;entryY=1;entryDx=0;entryDy=0;fontSize=12;endArrow=none;endFill=0;" edge="1" parent="1" source="wTyc-cyMKVWt9Ad9M723-31" target="wTyc-cyMKVWt9Ad9M723-30">
          <mxGeometry relative="1" as="geometry" />
        </mxCell>
        <mxCell id="wTyc-cyMKVWt9Ad9M723-31" value="5" style="text;html=1;strokeColor=none;fillColor=none;align=center;verticalAlign=middle;whiteSpace=wrap;rounded=0;fontSize=12;" vertex="1" parent="1">
          <mxGeometry x="223" y="50" width="60" height="22" as="geometry" />
        </mxCell>
        <mxCell id="wTyc-cyMKVWt9Ad9M723-43" style="edgeStyle=none;rounded=0;orthogonalLoop=1;jettySize=auto;html=1;exitX=0.5;exitY=0;exitDx=0;exitDy=0;entryX=0.5;entryY=1;entryDx=0;entryDy=0;fontSize=12;endArrow=none;endFill=0;" edge="1" parent="1" source="wTyc-cyMKVWt9Ad9M723-33" target="wTyc-cyMKVWt9Ad9M723-31">
          <mxGeometry relative="1" as="geometry" />
        </mxCell>
        <mxCell id="wTyc-cyMKVWt9Ad9M723-33" value="4" style="text;html=1;strokeColor=none;fillColor=none;align=center;verticalAlign=middle;whiteSpace=wrap;rounded=0;fontSize=12;" vertex="1" parent="1">
          <mxGeometry x="208" y="89" width="60" height="22" as="geometry" />
        </mxCell>
        <mxCell id="wTyc-cyMKVWt9Ad9M723-44" style="edgeStyle=none;rounded=0;orthogonalLoop=1;jettySize=auto;html=1;exitX=0.5;exitY=0;exitDx=0;exitDy=0;fontSize=12;endArrow=none;endFill=0;" edge="1" parent="1" source="wTyc-cyMKVWt9Ad9M723-34" target="wTyc-cyMKVWt9Ad9M723-33">
          <mxGeometry relative="1" as="geometry" />
        </mxCell>
        <mxCell id="wTyc-cyMKVWt9Ad9M723-34" value="1" style="text;html=1;strokeColor=none;fillColor=none;align=center;verticalAlign=middle;whiteSpace=wrap;rounded=0;fontSize=12;" vertex="1" parent="1">
          <mxGeometry x="191" y="132" width="60" height="22" as="geometry" />
        </mxCell>
        <mxCell id="wTyc-cyMKVWt9Ad9M723-36" style="edgeStyle=none;rounded=0;orthogonalLoop=1;jettySize=auto;html=1;exitX=0.5;exitY=1;exitDx=0;exitDy=0;entryX=0.5;entryY=0;entryDx=0;entryDy=0;fontSize=12;endArrow=none;endFill=0;" edge="1" parent="1" source="wTyc-cyMKVWt9Ad9M723-38" target="wTyc-cyMKVWt9Ad9M723-39">
          <mxGeometry relative="1" as="geometry" />
        </mxCell>
        <mxCell id="wTyc-cyMKVWt9Ad9M723-37" style="edgeStyle=none;rounded=0;orthogonalLoop=1;jettySize=auto;html=1;exitX=0.5;exitY=1;exitDx=0;exitDy=0;entryX=0.5;entryY=0;entryDx=0;entryDy=0;fontSize=12;endArrow=none;endFill=0;" edge="1" parent="1" source="wTyc-cyMKVWt9Ad9M723-38" target="wTyc-cyMKVWt9Ad9M723-40">
          <mxGeometry relative="1" as="geometry" />
        </mxCell>
        <mxCell id="wTyc-cyMKVWt9Ad9M723-38" value="17" style="text;html=1;strokeColor=none;fillColor=none;align=center;verticalAlign=middle;whiteSpace=wrap;rounded=0;fontSize=12;" vertex="1" parent="1">
          <mxGeometry x="302" y="50" width="60" height="30" as="geometry" />
        </mxCell>
        <mxCell id="wTyc-cyMKVWt9Ad9M723-39" value="16" style="text;html=1;strokeColor=none;fillColor=none;align=center;verticalAlign=middle;whiteSpace=wrap;rounded=0;fontSize=12;" vertex="1" parent="1">
          <mxGeometry x="273" y="99" width="60" height="30" as="geometry" />
        </mxCell>
        <mxCell id="wTyc-cyMKVWt9Ad9M723-40" value="21" style="text;html=1;strokeColor=none;fillColor=none;align=center;verticalAlign=middle;whiteSpace=wrap;rounded=0;fontSize=12;" vertex="1" parent="1">
          <mxGeometry x="329" y="96" width="60" height="30" as="geometry" />
        </mxCell>
        <mxCell id="wTyc-cyMKVWt9Ad9M723-45" value="hight 3" style="text;html=1;strokeColor=none;fillColor=none;align=center;verticalAlign=middle;whiteSpace=wrap;rounded=0;fontSize=12;" vertex="1" parent="1">
          <mxGeometry x="264" y="156" width="60" height="30" as="geometry" />
        </mxCell>
        <mxCell id="wTyc-cyMKVWt9Ad9M723-48" value="5" style="text;html=1;strokeColor=none;fillColor=none;align=center;verticalAlign=middle;whiteSpace=wrap;rounded=0;fontSize=12;" vertex="1" parent="1">
          <mxGeometry x="436" y="18" width="60" height="16" as="geometry" />
        </mxCell>
        <mxCell id="wTyc-cyMKVWt9Ad9M723-49" style="edgeStyle=none;rounded=0;orthogonalLoop=1;jettySize=auto;html=1;exitX=0.5;exitY=0;exitDx=0;exitDy=0;entryX=0.5;entryY=1;entryDx=0;entryDy=0;fontSize=12;endArrow=none;endFill=0;" edge="1" parent="1" source="wTyc-cyMKVWt9Ad9M723-50" target="wTyc-cyMKVWt9Ad9M723-48">
          <mxGeometry relative="1" as="geometry" />
        </mxCell>
        <mxCell id="wTyc-cyMKVWt9Ad9M723-50" value="4" style="text;html=1;strokeColor=none;fillColor=none;align=center;verticalAlign=middle;whiteSpace=wrap;rounded=0;fontSize=12;" vertex="1" parent="1">
          <mxGeometry x="421" y="57" width="60" height="22" as="geometry" />
        </mxCell>
        <mxCell id="wTyc-cyMKVWt9Ad9M723-51" style="edgeStyle=none;rounded=0;orthogonalLoop=1;jettySize=auto;html=1;exitX=0.5;exitY=0;exitDx=0;exitDy=0;fontSize=12;endArrow=none;endFill=0;" edge="1" parent="1" source="wTyc-cyMKVWt9Ad9M723-52" target="wTyc-cyMKVWt9Ad9M723-50">
          <mxGeometry relative="1" as="geometry" />
        </mxCell>
        <mxCell id="wTyc-cyMKVWt9Ad9M723-52" value="1" style="text;html=1;strokeColor=none;fillColor=none;align=center;verticalAlign=middle;whiteSpace=wrap;rounded=0;fontSize=12;" vertex="1" parent="1">
          <mxGeometry x="404" y="100" width="60" height="22" as="geometry" />
        </mxCell>
        <mxCell id="wTyc-cyMKVWt9Ad9M723-56" style="edgeStyle=none;rounded=0;orthogonalLoop=1;jettySize=auto;html=1;exitX=0.5;exitY=0;exitDx=0;exitDy=0;entryX=0.5;entryY=1;entryDx=0;entryDy=0;fontSize=12;endArrow=none;endFill=0;" edge="1" parent="1" source="wTyc-cyMKVWt9Ad9M723-53" target="wTyc-cyMKVWt9Ad9M723-48">
          <mxGeometry relative="1" as="geometry" />
        </mxCell>
        <mxCell id="wTyc-cyMKVWt9Ad9M723-57" style="edgeStyle=none;rounded=0;orthogonalLoop=1;jettySize=auto;html=1;exitX=0.5;exitY=1;exitDx=0;exitDy=0;entryX=0.5;entryY=0;entryDx=0;entryDy=0;fontSize=12;endArrow=none;endFill=0;" edge="1" parent="1">
          <mxGeometry relative="1" as="geometry">
            <mxPoint x="492" y="80" as="sourcePoint" />
            <mxPoint x="504" y="102" as="targetPoint" />
          </mxGeometry>
        </mxCell>
        <mxCell id="wTyc-cyMKVWt9Ad9M723-53" value="10" style="text;html=1;strokeColor=none;fillColor=none;align=center;verticalAlign=middle;whiteSpace=wrap;rounded=0;fontSize=12;" vertex="1" parent="1">
          <mxGeometry x="455" y="50" width="60" height="30" as="geometry" />
        </mxCell>
        <mxCell id="wTyc-cyMKVWt9Ad9M723-54" value="16" style="text;html=1;strokeColor=none;fillColor=none;align=center;verticalAlign=middle;whiteSpace=wrap;rounded=0;fontSize=12;" vertex="1" parent="1">
          <mxGeometry x="476" y="102" width="60" height="21" as="geometry" />
        </mxCell>
        <mxCell id="wTyc-cyMKVWt9Ad9M723-58" style="edgeStyle=none;rounded=0;orthogonalLoop=1;jettySize=auto;html=1;exitX=0.5;exitY=0;exitDx=0;exitDy=0;entryX=0.5;entryY=1;entryDx=0;entryDy=0;fontSize=12;endArrow=none;endFill=0;" edge="1" parent="1" source="wTyc-cyMKVWt9Ad9M723-55">
          <mxGeometry relative="1" as="geometry">
            <mxPoint x="504" y="123.00000000000011" as="targetPoint" />
          </mxGeometry>
        </mxCell>
        <mxCell id="wTyc-cyMKVWt9Ad9M723-60" style="edgeStyle=none;rounded=0;orthogonalLoop=1;jettySize=auto;html=1;exitX=0.5;exitY=1;exitDx=0;exitDy=0;entryX=0.5;entryY=0;entryDx=0;entryDy=0;fontSize=12;endArrow=none;endFill=0;" edge="1" parent="1" source="wTyc-cyMKVWt9Ad9M723-55" target="wTyc-cyMKVWt9Ad9M723-59">
          <mxGeometry relative="1" as="geometry" />
        </mxCell>
        <mxCell id="wTyc-cyMKVWt9Ad9M723-55" value="17" style="text;html=1;strokeColor=none;fillColor=none;align=center;verticalAlign=middle;whiteSpace=wrap;rounded=0;fontSize=12;" vertex="1" parent="1">
          <mxGeometry x="495" y="154" width="60" height="17" as="geometry" />
        </mxCell>
        <mxCell id="wTyc-cyMKVWt9Ad9M723-59" value="21" style="text;html=1;strokeColor=none;fillColor=none;align=center;verticalAlign=middle;whiteSpace=wrap;rounded=0;fontSize=12;" vertex="1" parent="1">
          <mxGeometry x="509" y="193" width="60" height="17" as="geometry" />
        </mxCell>
        <mxCell id="wTyc-cyMKVWt9Ad9M723-80" style="edgeStyle=none;rounded=0;orthogonalLoop=1;jettySize=auto;html=1;fontSize=12;endArrow=none;endFill=0;" edge="1" parent="1" target="wTyc-cyMKVWt9Ad9M723-74">
          <mxGeometry relative="1" as="geometry">
            <mxPoint x="67" y="262" as="sourcePoint" />
          </mxGeometry>
        </mxCell>
        <mxCell id="wTyc-cyMKVWt9Ad9M723-73" value="1" style="text;html=1;strokeColor=none;fillColor=none;align=center;verticalAlign=middle;whiteSpace=wrap;rounded=0;fontSize=12;" vertex="1" parent="1">
          <mxGeometry x="21" y="260" width="60" height="22" as="geometry" />
        </mxCell>
        <mxCell id="wTyc-cyMKVWt9Ad9M723-81" style="edgeStyle=none;rounded=0;orthogonalLoop=1;jettySize=auto;html=1;exitX=0.5;exitY=1;exitDx=0;exitDy=0;entryX=0.25;entryY=0;entryDx=0;entryDy=0;fontSize=12;endArrow=none;endFill=0;" edge="1" parent="1" source="wTyc-cyMKVWt9Ad9M723-74" target="wTyc-cyMKVWt9Ad9M723-75">
          <mxGeometry relative="1" as="geometry" />
        </mxCell>
        <mxCell id="wTyc-cyMKVWt9Ad9M723-74" value="4" style="text;html=1;strokeColor=none;fillColor=none;align=center;verticalAlign=middle;whiteSpace=wrap;rounded=0;fontSize=12;" vertex="1" parent="1">
          <mxGeometry x="73" y="218" width="60" height="22" as="geometry" />
        </mxCell>
        <mxCell id="wTyc-cyMKVWt9Ad9M723-82" style="edgeStyle=none;rounded=0;orthogonalLoop=1;jettySize=auto;html=1;exitX=0.5;exitY=1;exitDx=0;exitDy=0;fontSize=12;endArrow=none;endFill=0;" edge="1" parent="1" source="wTyc-cyMKVWt9Ad9M723-75" target="wTyc-cyMKVWt9Ad9M723-76">
          <mxGeometry relative="1" as="geometry" />
        </mxCell>
        <mxCell id="wTyc-cyMKVWt9Ad9M723-75" value="5" style="text;html=1;strokeColor=none;fillColor=none;align=center;verticalAlign=middle;whiteSpace=wrap;rounded=0;fontSize=12;" vertex="1" parent="1">
          <mxGeometry x="103" y="260" width="60" height="22" as="geometry" />
        </mxCell>
        <mxCell id="wTyc-cyMKVWt9Ad9M723-83" style="edgeStyle=none;rounded=0;orthogonalLoop=1;jettySize=auto;html=1;exitX=0.5;exitY=1;exitDx=0;exitDy=0;entryX=0.25;entryY=0;entryDx=0;entryDy=0;fontSize=12;endArrow=none;endFill=0;" edge="1" parent="1" source="wTyc-cyMKVWt9Ad9M723-76" target="wTyc-cyMKVWt9Ad9M723-77">
          <mxGeometry relative="1" as="geometry" />
        </mxCell>
        <mxCell id="wTyc-cyMKVWt9Ad9M723-76" value="10" style="text;html=1;strokeColor=none;fillColor=none;align=center;verticalAlign=middle;whiteSpace=wrap;rounded=0;fontSize=12;" vertex="1" parent="1">
          <mxGeometry x="123" y="296" width="60" height="22" as="geometry" />
        </mxCell>
        <mxCell id="wTyc-cyMKVWt9Ad9M723-84" style="edgeStyle=none;rounded=0;orthogonalLoop=1;jettySize=auto;html=1;exitX=0.5;exitY=1;exitDx=0;exitDy=0;entryX=0.25;entryY=0;entryDx=0;entryDy=0;fontSize=12;endArrow=none;endFill=0;" edge="1" parent="1" source="wTyc-cyMKVWt9Ad9M723-77" target="wTyc-cyMKVWt9Ad9M723-78">
          <mxGeometry relative="1" as="geometry" />
        </mxCell>
        <mxCell id="wTyc-cyMKVWt9Ad9M723-77" value="16" style="text;html=1;strokeColor=none;fillColor=none;align=center;verticalAlign=middle;whiteSpace=wrap;rounded=0;fontSize=12;" vertex="1" parent="1">
          <mxGeometry x="149" y="335" width="60" height="22" as="geometry" />
        </mxCell>
        <mxCell id="wTyc-cyMKVWt9Ad9M723-85" style="edgeStyle=none;rounded=0;orthogonalLoop=1;jettySize=auto;html=1;exitX=0.5;exitY=1;exitDx=0;exitDy=0;entryX=0.25;entryY=0;entryDx=0;entryDy=0;fontSize=12;endArrow=none;endFill=0;" edge="1" parent="1" source="wTyc-cyMKVWt9Ad9M723-78" target="wTyc-cyMKVWt9Ad9M723-79">
          <mxGeometry relative="1" as="geometry" />
        </mxCell>
        <mxCell id="wTyc-cyMKVWt9Ad9M723-78" value="17" style="text;html=1;strokeColor=none;fillColor=none;align=center;verticalAlign=middle;whiteSpace=wrap;rounded=0;fontSize=12;" vertex="1" parent="1">
          <mxGeometry x="174" y="369" width="60" height="22" as="geometry" />
        </mxCell>
        <mxCell id="wTyc-cyMKVWt9Ad9M723-79" value="21" style="text;html=1;strokeColor=none;fillColor=none;align=center;verticalAlign=middle;whiteSpace=wrap;rounded=0;fontSize=12;" vertex="1" parent="1">
          <mxGeometry x="200" y="406" width="60" height="22" as="geometry" />
        </mxCell>
        <mxCell id="wTyc-cyMKVWt9Ad9M723-86" style="edgeStyle=none;rounded=0;orthogonalLoop=1;jettySize=auto;html=1;exitX=0.5;exitY=1;exitDx=0;exitDy=0;fontSize=12;endArrow=none;endFill=0;" edge="1" parent="1" source="wTyc-cyMKVWt9Ad9M723-87" target="wTyc-cyMKVWt9Ad9M723-89">
          <mxGeometry relative="1" as="geometry" />
        </mxCell>
        <mxCell id="wTyc-cyMKVWt9Ad9M723-87" value="1" style="text;html=1;strokeColor=none;fillColor=none;align=center;verticalAlign=middle;whiteSpace=wrap;rounded=0;fontSize=12;" vertex="1" parent="1">
          <mxGeometry x="241" y="212" width="60" height="22" as="geometry" />
        </mxCell>
        <mxCell id="wTyc-cyMKVWt9Ad9M723-88" style="edgeStyle=none;rounded=0;orthogonalLoop=1;jettySize=auto;html=1;exitX=0.5;exitY=1;exitDx=0;exitDy=0;entryX=0.25;entryY=0;entryDx=0;entryDy=0;fontSize=12;endArrow=none;endFill=0;" edge="1" parent="1" source="wTyc-cyMKVWt9Ad9M723-89" target="wTyc-cyMKVWt9Ad9M723-91">
          <mxGeometry relative="1" as="geometry" />
        </mxCell>
        <mxCell id="wTyc-cyMKVWt9Ad9M723-89" value="4" style="text;html=1;strokeColor=none;fillColor=none;align=center;verticalAlign=middle;whiteSpace=wrap;rounded=0;fontSize=12;" vertex="1" parent="1">
          <mxGeometry x="262" y="250" width="60" height="22" as="geometry" />
        </mxCell>
        <mxCell id="wTyc-cyMKVWt9Ad9M723-90" style="edgeStyle=none;rounded=0;orthogonalLoop=1;jettySize=auto;html=1;exitX=0.5;exitY=1;exitDx=0;exitDy=0;fontSize=12;endArrow=none;endFill=0;" edge="1" parent="1" source="wTyc-cyMKVWt9Ad9M723-91" target="wTyc-cyMKVWt9Ad9M723-93">
          <mxGeometry relative="1" as="geometry" />
        </mxCell>
        <mxCell id="wTyc-cyMKVWt9Ad9M723-91" value="5" style="text;html=1;strokeColor=none;fillColor=none;align=center;verticalAlign=middle;whiteSpace=wrap;rounded=0;fontSize=12;" vertex="1" parent="1">
          <mxGeometry x="292" y="292" width="60" height="22" as="geometry" />
        </mxCell>
        <mxCell id="wTyc-cyMKVWt9Ad9M723-92" style="edgeStyle=none;rounded=0;orthogonalLoop=1;jettySize=auto;html=1;exitX=0.5;exitY=1;exitDx=0;exitDy=0;entryX=0.25;entryY=0;entryDx=0;entryDy=0;fontSize=12;endArrow=none;endFill=0;" edge="1" parent="1" source="wTyc-cyMKVWt9Ad9M723-93" target="wTyc-cyMKVWt9Ad9M723-95">
          <mxGeometry relative="1" as="geometry" />
        </mxCell>
        <mxCell id="wTyc-cyMKVWt9Ad9M723-93" value="10" style="text;html=1;strokeColor=none;fillColor=none;align=center;verticalAlign=middle;whiteSpace=wrap;rounded=0;fontSize=12;" vertex="1" parent="1">
          <mxGeometry x="312" y="328" width="60" height="22" as="geometry" />
        </mxCell>
        <mxCell id="wTyc-cyMKVWt9Ad9M723-94" style="edgeStyle=none;rounded=0;orthogonalLoop=1;jettySize=auto;html=1;exitX=0.5;exitY=1;exitDx=0;exitDy=0;entryX=0.25;entryY=0;entryDx=0;entryDy=0;fontSize=12;endArrow=none;endFill=0;" edge="1" parent="1" source="wTyc-cyMKVWt9Ad9M723-95" target="wTyc-cyMKVWt9Ad9M723-97">
          <mxGeometry relative="1" as="geometry" />
        </mxCell>
        <mxCell id="wTyc-cyMKVWt9Ad9M723-95" value="16" style="text;html=1;strokeColor=none;fillColor=none;align=center;verticalAlign=middle;whiteSpace=wrap;rounded=0;fontSize=12;" vertex="1" parent="1">
          <mxGeometry x="338" y="367" width="60" height="22" as="geometry" />
        </mxCell>
        <mxCell id="wTyc-cyMKVWt9Ad9M723-96" style="edgeStyle=none;rounded=0;orthogonalLoop=1;jettySize=auto;html=1;exitX=0.5;exitY=1;exitDx=0;exitDy=0;entryX=0.25;entryY=0;entryDx=0;entryDy=0;fontSize=12;endArrow=none;endFill=0;" edge="1" parent="1" source="wTyc-cyMKVWt9Ad9M723-97" target="wTyc-cyMKVWt9Ad9M723-98">
          <mxGeometry relative="1" as="geometry" />
        </mxCell>
        <mxCell id="wTyc-cyMKVWt9Ad9M723-97" value="17" style="text;html=1;strokeColor=none;fillColor=none;align=center;verticalAlign=middle;whiteSpace=wrap;rounded=0;fontSize=12;" vertex="1" parent="1">
          <mxGeometry x="363" y="401" width="60" height="22" as="geometry" />
        </mxCell>
        <mxCell id="wTyc-cyMKVWt9Ad9M723-98" value="21" style="text;html=1;strokeColor=none;fillColor=none;align=center;verticalAlign=middle;whiteSpace=wrap;rounded=0;fontSize=12;" vertex="1" parent="1">
          <mxGeometry x="389" y="438" width="60" height="22" as="geometry" />
        </mxCell>
        <mxCell id="wTyc-cyMKVWt9Ad9M723-99" value="hight 4" style="text;html=1;strokeColor=none;fillColor=none;align=center;verticalAlign=middle;whiteSpace=wrap;rounded=0;fontSize=12;" vertex="1" parent="1">
          <mxGeometry x="411" y="163" width="60" height="30" as="geometry" />
        </mxCell>
        <mxCell id="wTyc-cyMKVWt9Ad9M723-100" value="hight 5" style="text;html=1;strokeColor=none;fillColor=none;align=center;verticalAlign=middle;whiteSpace=wrap;rounded=0;fontSize=12;" vertex="1" parent="1">
          <mxGeometry x="81" y="406" width="60" height="30" as="geometry" />
        </mxCell>
        <mxCell id="wTyc-cyMKVWt9Ad9M723-101" value="hight 6" style="text;html=1;strokeColor=none;fillColor=none;align=center;verticalAlign=middle;whiteSpace=wrap;rounded=0;fontSize=12;" vertex="1" parent="1">
          <mxGeometry x="283" y="411" width="60" height="30" as="geometry" />
        </mxCell>
      </root>
    </mxGraphModel>
  </diagram>
</mxfile>
